<?xml version="1.0" encoding="UTF-8" standalone="no"?>
<!-- Created with Inkscape (http://www.inkscape.org/) -->

<svg
   width="220"
   height="220"
   viewBox="0 0 58.208332 58.208332"
   version="1.1"
   id="svg5"
   inkscape:version="1.4.2 (ebf0e940d0, 2025-05-08)"
   sodipodi:docname="ltd-icon.svg"
   inkscape:export-filename="sample_cricle_512x512px.png"
   inkscape:export-xdpi="163.84"
   inkscape:export-ydpi="163.84"
   xmlns:inkscape="http://www.inkscape.org/namespaces/inkscape"
   xmlns:sodipodi="http://sodipodi.sourceforge.net/DTD/sodipodi-0.dtd"
   xmlns="http://www.w3.org/2000/svg"
   xmlns:svg="http://www.w3.org/2000/svg">
  <sodipodi:namedview
     id="namedview7"
     pagecolor="#ffffff"
     bordercolor="#666666"
     borderopacity="1.0"
     inkscape:showpageshadow="2"
     inkscape:pageopacity="0"
     inkscape:pagecheckerboard="false"
     inkscape:deskcolor="#d1d1d1"
     inkscape:document-units="px"
     showgrid="true"
     inkscape:zoom="1.4142136"
     inkscape:cx="165.81654"
     inkscape:cy="130.4612"
     inkscape:window-width="1920"
     inkscape:window-height="980"
     inkscape:window-x="0"
     inkscape:window-y="0"
     inkscape:window-maximized="1"
     inkscape:current-layer="layer2"
     showguides="true">
    <inkscape:grid
       type="xygrid"
       id="grid152"
       originx="26.458332"
       originy="26.458332"
       spacingx="2.6458333"
       spacingy="2.6458333"
       dotted="false"
       units="px"
       enabled="true"
       visible="true" />
    <sodipodi:guide
       position="39.687499,39.6875"
       orientation="-1,0"
       id="guide1545"
       inkscape:locked="false"
       inkscape:label=""
       inkscape:color="rgb(0,134,229)" />
    <sodipodi:guide
       position="39.687498,39.6875"
       orientation="0,1"
       id="guide3049"
       inkscape:locked="false"
       inkscape:label=""
       inkscape:color="rgb(0,134,229)" />
  </sodipodi:namedview>
  <defs
     id="defs2">
    <rect
       x="150"
       y="90"
       width="100"
       height="100"
       id="rect2" />
    <inkscape:path-effect
       effect="spiro"
       id="path-effect18"
       is_visible="true"
       lpeversion="1" />
    <inkscape:path-effect
       effect="spiro"
       id="path-effect17"
       is_visible="true"
       lpeversion="1" />
    <inkscape:path-effect
       effect="spiro"
       id="path-effect16"
       is_visible="true"
       lpeversion="1" />
    <inkscape:path-effect
       effect="spiro"
       id="path-effect15"
       is_visible="true"
       lpeversion="1" />
    <inkscape:path-effect
       effect="spiro"
       id="path-effect14"
       is_visible="true"
       lpeversion="1" />
    <inkscape:path-effect
       effect="spiro"
       id="path-effect13"
       is_visible="true"
       lpeversion="1" />
    <inkscape:perspective
       sodipodi:type="inkscape:persp3d"
       inkscape:vp_x="0 : 18.520833 : 1"
       inkscape:vp_y="0 : 999.99998 : 0"
       inkscape:vp_z="79.374999 : 18.520833 : 1"
       inkscape:persp3d-origin="39.687499 : 5.2916669 : 1"
       id="perspective6" />
    <rect
       x="150"
       y="90"
       width="100"
       height="100"
       id="rect2-0" />
    <rect
       x="150"
       y="90"
       width="100"
       height="100"
       id="rect2-0-0" />
    <rect
       x="150"
       y="90"
       width="100"
       height="100"
       id="rect2-0-5" />
    <rect
       x="150"
       y="90"
       width="100"
       height="100"
       id="rect2-0-9" />
    <rect
       x="150"
       y="90"
       width="100"
       height="100"
       id="rect2-0-5-5" />
    <rect
       x="150"
       y="90"
       width="100"
       height="100"
       id="rect2-0-0-9" />
    <rect
       x="150"
       y="90"
       width="100"
       height="100"
       id="rect2-0-9-0" />
    <rect
       x="150"
       y="90"
       width="100"
       height="100"
       id="rect2-0-9-06" />
  </defs>
  <g
     inkscape:groupmode="layer"
     id="layer2"
     inkscape:label="Icon"
     style="display:inline;fill:#000000;fill-opacity:1">
    <path
       id="path1"
       style="display:inline;fill:#ffffff;fill-opacity:1;stroke-width:0.264583"
       inkscape:label="Docs"
       d="M -1.6843718e-6,31.749998 13.229164,58.208331 H 23.812497 L 21.166664,52.916664 H 15.874998 L 7.9374983,37.041665 h 5.2916657 l -2.645833,-5.291667 z m 47.6249986843718,0 -2.645833,5.291667 h 5.291666 l -7.9375,15.874999 h -5.291666 l -2.645833,5.291667 H 44.979164 L 58.20833,31.749998 Z"
       sodipodi:insensitive="true" />
    <path
       id="path4"
       style="fill:#ffffff;fill-opacity:1;stroke-width:0.492444"
       inkscape:label="Localize"
       inkscape:transform-center-y="5.2916681"
       d="M 29.104165,3.0883828e-8 A 18.520835,18.520834 0 0 0 10.583332,18.520832 18.520835,18.520834 0 0 0 15.542202,31.084406 L 29.104165,58.20833 42.666126,31.084406 A 18.520835,18.520834 0 0 0 47.624996,18.520832 18.520835,18.520834 0 0 0 29.104165,3.0883828e-8 Z M 29.104165,5.291666 A 13.229166,13.229166 0 0 1 42.33333,18.520832 13.229166,13.229166 0 0 1 29.104165,31.749998 13.229166,13.229166 0 0 1 15.874998,18.520832 13.229166,13.229166 0 0 1 29.104165,5.291666 Z m -8.88628,29.425076 a 18.520835,18.520834 0 0 0 0.698664,0.381372 18.520835,18.520832 0 0 1 -0.698664,-0.381372 z m 17.772558,0 a 18.520835,18.520832 0 0 1 -0.698664,0.381372 18.520835,18.520834 0 0 0 0.698664,-0.381372 z M 22.20691,35.665004 a 18.520835,18.520834 0 0 0 0.996322,0.371554 18.520835,18.520832 0 0 1 -0.996322,-0.371554 z m 13.794508,0 a 18.520835,18.520832 0 0 1 -0.996322,0.371554 18.520835,18.520834 0 0 0 0.996322,-0.371554 z m -11.587408,0.74104 a 18.520835,18.520834 0 0 0 1.275375,0.277504 18.520835,18.520832 0 0 1 -1.275375,-0.277504 z m 9.380308,0 a 18.520835,18.520832 0 0 1 -1.275375,0.277504 18.520835,18.520834 0 0 0 1.275375,-0.277504 z m -7.063652,0.465606 a 18.520835,18.520834 0 0 0 2.373499,0.17002 18.520835,18.520834 0 0 0 2.373497,-0.17002 18.520835,18.520832 0 0 1 -2.373497,0.17002 18.520835,18.520832 0 0 1 -2.373499,-0.17002 z"
       sodipodi:insensitive="true" />
    <path
       d="m 33.030476,26.458326 -0.904085,-3.461354 h -5.992792 l -0.929916,3.461354 H 19.727511 L 25.746134,7.9375 h 6.638567 l 6.096116,18.520826 z M 30.29239,15.893448 q -0.129155,-0.490789 -0.361634,-1.394874 -0.232479,-0.929916 -0.464958,-1.911494 -0.232479,-0.981578 -0.361634,-1.601522 -0.103324,0.619944 -0.335803,1.54986 -0.206648,0.929916 -0.439127,1.834001 -0.206648,0.904085 -0.361634,1.524029 l -0.800761,3.022226 h 3.926312 z"
       id="text1"
       style="font-weight:900;font-size:25.831px;line-height:1;font-family:'Noto Sans';-inkscape-font-specification:'Noto Sans, Heavy';fill:#ffffff;stroke-width:2.33892"
       inkscape:label="Text"
       aria-label="A"
       sodipodi:insensitive="true" />
  </g>
</svg>
